<svg width="35" height="35" viewBox="0 0 35 35" fill="none" xmlns="http://www.w3.org/2000/svg">
<path d="M17.5001 0C7.83516 0 0 7.83516 0 17.5001C0 26.1684 6.30913 33.3473 14.5814 34.7374V21.1511H10.3599V16.262H14.5814V12.6569C14.5814 8.47397 17.1362 6.19452 20.8682 6.19452C22.6556 6.19452 24.1917 6.32771 24.6376 6.38637V10.7586L22.0492 10.7599C20.02 10.7599 19.6288 11.7239 19.6288 13.1391V16.2594H24.4706L23.8391 21.1486H19.6288V34.8543C28.2873 33.8005 35 26.4388 35 17.4951C35 7.83516 27.1648 0 17.5001 0Z" fill="white"/>
</svg>
