<svg width="35" height="35" viewBox="0 0 35 35" fill="none" xmlns="http://www.w3.org/2000/svg">
<path d="M14.2222 16.6096C13.2215 16.6175 12.4099 17.4527 12.4099 18.4849C12.4099 19.5092 13.2215 20.3523 14.2143 20.3523C15.2071 20.3523 16.0186 19.5171 16.0186 18.477C16.0186 17.4527 15.215 16.6096 14.2222 16.6096Z" fill="white"/>
<path d="M20.6753 16.6096C19.6825 16.6175 18.871 17.4527 18.871 18.4849C18.871 19.5092 19.6825 20.3523 20.6753 20.3523C21.6681 20.3523 22.4797 19.5171 22.4797 18.477C22.4797 17.4527 21.676 16.6096 20.6753 16.6096Z" fill="white"/>
<path d="M17.5 0C7.83206 0 0 7.83206 0 17.5C0 27.1679 7.83206 35 17.5 35C27.1679 35 35 27.1679 35 17.5C35 7.83206 27.1679 0 17.5 0ZM22.3143 24.4574C22.3143 24.4574 21.6524 23.7089 21.1875 23.0628C23.4331 22.4167 24.292 21.1402 24.3235 21.1009C23.575 21.5736 22.8973 21.8494 22.3379 22.133C21.4869 22.5113 20.636 22.6925 19.785 22.8816C15.7508 23.5356 13.4894 22.4403 11.3462 21.5736L10.6135 21.2033C10.6371 21.2427 11.4959 22.5191 13.6549 23.1652C13.0797 23.8192 12.5124 24.5678 12.5124 24.5678C8.61211 24.4732 7.19383 22.0385 7.19383 22.0385C7.19383 16.6175 9.75461 12.2208 9.75461 12.2208C12.3154 10.3534 14.695 10.448 14.695 10.448L14.8841 10.6371C11.7954 11.3699 10.3692 12.7409 10.3298 12.7882C10.3534 12.7803 10.7317 12.5912 11.3699 12.3154C15.5932 10.6529 20.2105 10.771 24.4811 12.8748C24.4338 12.8354 23.0077 11.5511 20.1159 10.7238L20.376 10.4716C20.7857 10.4716 22.9367 10.5504 25.2375 12.2366C25.2375 12.2366 27.814 16.6412 27.814 22.0543C27.7274 21.9439 26.2145 24.3787 22.3143 24.4574Z" fill="white"/>
</svg>
